<svg width="76" height="45" viewBox="0 0 76 45" fill="none" xmlns="http://www.w3.org/2000/svg">
<g clip-path="url(#clip0_8_4)">
<path d="M16.168 4.65625C17.8477 4.70833 19.4622 4.73438 21.0117 4.73438C22.5612 4.73438 24.1693 4.70833 25.8359 4.65625L25.9336 5.49609L23.5117 6.21875C23.1862 6.29688 23.0104 6.4987 22.9844 6.82422C22.9714 7.27995 22.9583 7.78125 22.9453 8.32812C22.9453 8.86198 22.9453 9.44792 22.9453 10.0859V27.7812C22.9453 29.0573 22.8932 30.2227 22.7891 31.2773C22.6979 32.319 22.5286 33.25 22.2812 34.0703C22.0339 34.8906 21.6823 35.6198 21.2266 36.2578C20.7839 36.9089 20.2174 37.4818 19.5273 37.9766C18.8372 38.4844 18.0039 38.9271 17.0273 39.3047C16.0508 39.6823 14.8919 40.0273 13.5508 40.3398L13.2578 39.3633C14.612 38.7904 15.6732 38.1589 16.4414 37.4688C17.2227 36.7786 17.8086 35.9909 18.1992 35.1055C18.6029 34.2201 18.8568 33.224 18.9609 32.1172C19.0781 31.0104 19.1367 29.7604 19.1367 28.3672V10.1641C19.1367 9.5 19.1302 8.90104 19.1172 8.36719C19.1172 7.83333 19.1107 7.35156 19.0977 6.92188C19.0846 6.58333 18.9284 6.36198 18.6289 6.25781L16.207 5.49609L16.168 4.65625ZM45.7969 10.0859V26.0039C45.7969 26.7852 45.7969 27.4948 45.7969 28.1328C45.8099 28.7708 45.8229 29.3503 45.8359 29.8711C45.849 30.2096 46.0182 30.431 46.3438 30.5352L48.5117 31.2188L48.5703 32.0586C47.0208 32.0195 45.4714 32 43.9219 32C42.3464 32 40.7318 32.0195 39.0781 32.0586L39 31.2188L41.4023 30.4961C41.7409 30.3919 41.9167 30.1901 41.9297 29.8906C41.9427 29.3698 41.9492 28.7904 41.9492 28.1523C41.9622 27.5013 41.9688 26.7852 41.9688 26.0039V10.1641C41.9688 9.5 41.9622 8.90104 41.9492 8.36719C41.9492 7.83333 41.9427 7.35156 41.9297 6.92188C41.9167 6.58333 41.7604 6.36198 41.4609 6.25781L39.0391 5.49609L39 4.65625C40.6797 4.70833 42.2943 4.73438 43.8438 4.73438C45.3932 4.73438 46.9362 4.70833 48.4727 4.65625L48.5703 5.49609L46.3438 6.17969C46.0312 6.25781 45.862 6.45964 45.8359 6.78516C45.8229 7.25391 45.8099 7.76172 45.7969 8.30859C45.7969 8.85547 45.7969 9.44792 45.7969 10.0859ZM46.3047 18.1719L54.1758 9.40234C54.7878 8.71224 55.2826 8.13281 55.6602 7.66406C56.0378 7.18229 56.2266 6.79818 56.2266 6.51172C56.2266 6.2513 56.0508 6.07552 55.6992 5.98438L54.0977 5.55469L54.0586 4.65625C55.3477 4.70833 56.7865 4.73438 58.375 4.73438C59.8984 4.73438 61.3307 4.70833 62.6719 4.65625L62.75 5.49609L60.7773 6.12109C60.1784 6.31641 59.6576 6.61589 59.2148 7.01953C58.7852 7.42318 58.3229 7.89844 57.8281 8.44531L50.0156 17.0391L58.9023 28.7578C59.2799 29.2526 59.651 29.6562 60.0156 29.9688C60.3802 30.2682 60.8555 30.5026 61.4414 30.6719L63.2188 31.2188L63.2578 32.0586C62.1641 32.0195 60.7773 32 59.0977 32C58.6549 32 58.2057 32 57.75 32C57.2943 32.013 56.8385 32.026 56.3828 32.0391C55.9271 31.1016 54.7227 29.3372 52.7695 26.7461L46.3047 18.1719Z" fill="white"/>
<rect x="-2" y="15" width="80" height="10" fill="black"/>
<path d="M12.7336 22.036C12.4976 22.036 12.2756 21.984 12.0676 21.88C11.8636 21.776 11.6996 21.628 11.5756 21.436L11.8336 21.136C11.9496 21.304 12.0836 21.432 12.2356 21.52C12.3876 21.608 12.5556 21.652 12.7396 21.652C13.2596 21.652 13.5196 21.344 13.5196 20.728V18.184H11.9836V17.8H13.9576V20.71C13.9576 21.154 13.8536 21.486 13.6456 21.706C13.4416 21.926 13.1376 22.036 12.7336 22.036ZM15.4296 22L17.3496 17.8H17.7876L19.7076 22H19.2396L17.4756 18.058H17.6556L15.8916 22H15.4296ZM16.1856 20.878L16.3176 20.518H18.7596L18.8916 20.878H16.1856ZM21.3024 22V17.8H23.1144C23.5824 17.8 23.9444 17.894 24.2004 18.082C24.4604 18.27 24.5904 18.536 24.5904 18.88C24.5904 19.108 24.5364 19.3 24.4284 19.456C24.3244 19.612 24.1804 19.73 23.9964 19.81C23.8164 19.89 23.6184 19.93 23.4024 19.93L23.5044 19.786C23.7724 19.786 24.0024 19.828 24.1944 19.912C24.3904 19.992 24.5424 20.114 24.6504 20.278C24.7584 20.438 24.8124 20.638 24.8124 20.878C24.8124 21.234 24.6804 21.51 24.4164 21.706C24.1564 21.902 23.7624 22 23.2344 22H21.3024ZM21.7464 21.634H23.2284C23.5964 21.634 23.8784 21.572 24.0744 21.448C24.2704 21.32 24.3684 21.118 24.3684 20.842C24.3684 20.57 24.2704 20.372 24.0744 20.248C23.8784 20.12 23.5964 20.056 23.2284 20.056H21.6984V19.69H23.0844C23.4204 19.69 23.6804 19.626 23.8644 19.498C24.0524 19.37 24.1464 19.18 24.1464 18.928C24.1464 18.672 24.0524 18.482 23.8644 18.358C23.6804 18.23 23.4204 18.166 23.0844 18.166H21.7464V21.634ZM26.7258 22V17.8H28.5378C29.0058 17.8 29.3678 17.894 29.6238 18.082C29.8838 18.27 30.0138 18.536 30.0138 18.88C30.0138 19.108 29.9598 19.3 29.8518 19.456C29.7478 19.612 29.6038 19.73 29.4198 19.81C29.2398 19.89 29.0418 19.93 28.8258 19.93L28.9278 19.786C29.1958 19.786 29.4258 19.828 29.6178 19.912C29.8138 19.992 29.9658 20.114 30.0738 20.278C30.1818 20.438 30.2358 20.638 30.2358 20.878C30.2358 21.234 30.1038 21.51 29.8398 21.706C29.5798 21.902 29.1858 22 28.6578 22H26.7258ZM27.1698 21.634H28.6518C29.0198 21.634 29.3018 21.572 29.4978 21.448C29.6938 21.32 29.7918 21.118 29.7918 20.842C29.7918 20.57 29.6938 20.372 29.4978 20.248C29.3018 20.12 29.0198 20.056 28.6518 20.056H27.1218V19.69H28.5078C28.8438 19.69 29.1038 19.626 29.2878 19.498C29.4758 19.37 29.5698 19.18 29.5698 18.928C29.5698 18.672 29.4758 18.482 29.2878 18.358C29.1038 18.23 28.8438 18.166 28.5078 18.166H27.1698V21.634ZM31.4772 22L33.3972 17.8H33.8352L35.7552 22H35.2872L33.5232 18.058H33.7032L31.9392 22H31.4772ZM32.2332 20.878L32.3652 20.518H34.8072L34.9392 20.878H32.2332ZM37.35 22V17.8H38.922C39.278 17.8 39.584 17.858 39.84 17.974C40.096 18.086 40.292 18.25 40.428 18.466C40.568 18.678 40.638 18.936 40.638 19.24C40.638 19.536 40.568 19.792 40.428 20.008C40.292 20.22 40.096 20.384 39.84 20.5C39.584 20.612 39.278 20.668 38.922 20.668H37.596L37.794 20.464V22H37.35ZM40.218 22L39.138 20.476H39.618L40.704 22H40.218ZM37.794 20.5L37.596 20.29H38.91C39.33 20.29 39.648 20.198 39.864 20.014C40.084 19.83 40.194 19.572 40.194 19.24C40.194 18.904 40.084 18.644 39.864 18.46C39.648 18.276 39.33 18.184 38.91 18.184H37.596L37.794 17.974V20.5ZM45.4403 20.956L45.4223 20.416L47.9663 17.8H48.4763L46.6223 19.744L46.3703 20.014L45.4403 20.956ZM45.0563 22V17.8H45.5003V22H45.0563ZM48.0743 22L46.2623 19.912L46.5623 19.588L48.6023 22H48.0743ZM53.2939 17.8H53.7319V22H53.2939V17.8ZM50.6659 22H50.2219V17.8H50.6659V22ZM53.3359 20.062H50.6179V19.672H53.3359V20.062ZM55.3307 22L57.2507 17.8H57.6887L59.6087 22H59.1407L57.3767 18.058H57.5567L55.7927 22H55.3307ZM56.0867 20.878L56.2187 20.518H58.6607L58.7927 20.878H56.0867ZM61.2035 22V17.8H61.5695L64.4675 21.448H64.2755V17.8H64.7135V22H64.3475L61.4555 18.352H61.6475V22H61.2035Z" fill="white"/>
</g>
<defs>
<clipPath id="clip0_8_4">
<rect width="76" height="45" fill="white"/>
</clipPath>
</defs>
</svg>
